<svg width="53" height="50" viewBox="0 0 53 50" fill="none" xmlns="http://www.w3.org/2000/svg">
<circle cx="20.7821" cy="20" r="20" fill="#142A54"/>
<path d="M20.9323 12.0529C20.1207 12.0529 19.3274 12.2936 18.6526 12.7445C17.9778 13.1953 17.4518 13.8362 17.1412 14.586C16.8307 15.3358 16.7494 16.1609 16.9077 16.9569C17.0661 17.7529 17.4569 18.484 18.0308 19.0579C18.6046 19.6318 19.3358 20.0226 20.1318 20.1809C20.9278 20.3393 21.7528 20.258 22.5026 19.9474C23.2524 19.6368 23.8933 19.1109 24.3442 18.4361C24.7951 17.7613 25.0358 16.9679 25.0358 16.1563C25.0345 15.0684 24.6018 14.0254 23.8325 13.2561C23.0632 12.4869 22.0202 12.0541 20.9323 12.0529ZM20.9323 18.208C20.5265 18.208 20.1299 18.0877 19.7924 17.8623C19.455 17.6368 19.1921 17.3164 19.0368 16.9415C18.8815 16.5666 18.8409 16.1541 18.92 15.7561C18.9992 15.3581 19.1946 14.9925 19.4815 14.7056C19.7685 14.4186 20.1341 14.2232 20.5321 14.144C20.93 14.0649 21.3426 14.1055 21.7175 14.2608C22.0924 14.4161 22.4128 14.6791 22.6383 15.0165C22.8637 15.3539 22.984 15.7505 22.984 16.1563C22.9834 16.7003 22.767 17.2218 22.3824 17.6064C21.9978 17.9911 21.4763 18.2074 20.9323 18.208Z" fill="white"/>
<path d="M28.8174 8.26512C26.8678 6.31602 24.2654 5.15817 21.5123 5.01505C18.7592 4.87192 16.0507 5.75367 13.9095 7.4901C11.7683 9.22654 10.3462 11.6946 9.91768 14.4179C9.48916 17.1411 10.0846 19.9266 11.589 22.2367L19.3411 34.1375C19.5136 34.4023 19.7495 34.6199 20.0274 34.7705C20.3052 34.9211 20.6163 35 20.9323 35C21.2484 35 21.5594 34.9211 21.8373 34.7705C22.1152 34.6199 22.351 34.4023 22.5235 34.1375L30.2759 22.2367C31.6719 20.0938 32.2888 17.5361 32.0232 14.9924C31.7577 12.4487 30.6259 10.0736 28.8174 8.26512ZM28.5568 21.1168L20.9324 32.8212L13.3079 21.1168C10.974 17.5341 11.4746 12.7395 14.4981 9.71588C15.343 8.8709 16.3461 8.20062 17.4501 7.74332C18.5541 7.28602 19.7374 7.05065 20.9324 7.05065C22.1273 7.05065 23.3106 7.28602 24.4146 7.74332C25.5186 8.20062 26.5217 8.8709 27.3667 9.71588C30.3901 12.7395 30.8906 17.5341 28.5568 21.1168Z" fill="white"/>
</svg>
