<svg width="53" height="50" viewBox="0 0 53 50" fill="none" xmlns="http://www.w3.org/2000/svg">
<circle cx="20.7821" cy="20" r="20" fill="#142A54"/>
<path d="M25.8519 30C24.8007 30 23.6937 29.7488 22.5495 29.2651C21.4333 28.7907 20.3077 28.1395 19.21 27.3488C18.1216 26.5488 17.0705 25.6558 16.0751 24.6791C15.0891 23.6837 14.1961 22.6326 13.4054 21.5535C12.6054 20.4372 11.9635 19.3209 11.5077 18.2419C11.024 17.0884 10.7821 15.9721 10.7821 14.9209C10.7821 14.1953 10.9123 13.507 11.1635 12.8651C11.424 12.2047 11.8426 11.5907 12.41 11.0605C13.1263 10.3535 13.9449 10 14.8193 10C15.1821 10 15.5542 10.0837 15.8705 10.2326C16.2333 10.4 16.5402 10.6512 16.7635 10.986L18.9216 14.0279C19.117 14.2977 19.2658 14.5581 19.3682 14.8186C19.4891 15.0977 19.5542 15.3767 19.5542 15.6465C19.5542 16 19.4519 16.3442 19.2565 16.6698C19.117 16.9209 18.903 17.1907 18.6333 17.4605L18.0007 18.1209C18.01 18.1488 18.0193 18.1674 18.0286 18.186C18.1402 18.3814 18.3635 18.7163 18.7914 19.2186C19.2472 19.7395 19.6751 20.214 20.103 20.6512C20.6519 21.1907 21.1077 21.6186 21.5356 21.9721C22.0658 22.4186 22.41 22.6419 22.6147 22.7442L22.5961 22.7907L23.2751 22.1209C23.5635 21.8326 23.8426 21.6186 24.1123 21.4791C24.624 21.1628 25.2751 21.107 25.9263 21.3767C26.1682 21.4791 26.4286 21.6186 26.7077 21.814L29.7961 24.0093C30.1402 24.2419 30.3914 24.5395 30.5402 24.893C30.6798 25.2465 30.7449 25.5721 30.7449 25.8977C30.7449 26.3442 30.6426 26.7907 30.4472 27.2093C30.2519 27.6279 30.01 27.9907 29.703 28.3256C29.1728 28.9116 28.5961 29.3302 27.9263 29.6C27.2844 29.8605 26.5868 30 25.8519 30ZM14.8193 11.3953C14.3077 11.3953 13.8333 11.6186 13.3775 12.0651C12.9495 12.4651 12.6519 12.9023 12.4658 13.3767C12.2705 13.8605 12.1775 14.3721 12.1775 14.9209C12.1775 15.786 12.3821 16.7256 12.7914 17.693C13.21 18.6791 13.7961 19.7023 14.5402 20.7256C15.2844 21.7488 16.1309 22.7442 17.0612 23.6837C17.9914 24.6047 18.9961 25.4605 20.0286 26.214C21.0333 26.9488 22.0658 27.5442 23.0891 27.9721C24.6798 28.6512 26.1682 28.8093 27.3961 28.2977C27.8705 28.1023 28.2891 27.8047 28.6705 27.3767C28.8844 27.1442 29.0519 26.893 29.1914 26.5954C29.303 26.3628 29.3588 26.1209 29.3588 25.8791C29.3588 25.7302 29.3309 25.5814 29.2565 25.414C29.2286 25.3581 29.1728 25.2558 28.9961 25.1349L25.9077 22.9395C25.7216 22.8093 25.5542 22.7163 25.3961 22.6512C25.1914 22.5674 25.1077 22.4837 24.7914 22.6791C24.6054 22.7721 24.4379 22.9116 24.2519 23.0977L23.5449 23.7953C23.1821 24.1488 22.624 24.2326 22.1961 24.0744L21.9449 23.9628C21.5635 23.7581 21.117 23.4419 20.624 23.0233C20.1775 22.6419 19.6937 22.1953 19.1077 21.6186C18.6519 21.1535 18.1961 20.6605 17.7216 20.1116C17.2844 19.6 16.9682 19.1628 16.7728 18.8L16.6612 18.5209C16.6054 18.307 16.5868 18.186 16.5868 18.0558C16.5868 17.7209 16.7077 17.4233 16.9402 17.1907L17.6379 16.4651C17.824 16.2791 17.9635 16.1023 18.0565 15.9442C18.1309 15.8233 18.1588 15.7209 18.1588 15.6279C18.1588 15.5535 18.1309 15.4419 18.0844 15.3302C18.0193 15.1814 17.917 15.014 17.7868 14.8372L15.6286 11.786C15.5356 11.6558 15.424 11.5628 15.2844 11.4977C15.1356 11.4326 14.9775 11.3953 14.8193 11.3953ZM22.5961 22.8L22.4472 23.4326L22.6984 22.7814C22.6519 22.7721 22.6147 22.7814 22.5961 22.8Z" fill="white"/>
<path d="M26.8286 17.907C26.4472 17.907 26.1309 17.5907 26.1309 17.2093C26.1309 16.8744 25.7961 16.1767 25.2379 15.5814C24.6891 14.9953 24.0844 14.6512 23.5728 14.6512C23.1914 14.6512 22.8751 14.3349 22.8751 13.9535C22.8751 13.5721 23.1914 13.2558 23.5728 13.2558C24.4751 13.2558 25.424 13.7395 26.2519 14.6233C27.024 15.4512 27.5263 16.4651 27.5263 17.2093C27.5263 17.5907 27.21 17.907 26.8286 17.907Z" fill="white"/>
<path d="M30.0844 17.907C29.703 17.907 29.3867 17.5907 29.3867 17.2093C29.3867 14 26.7821 11.3953 23.5728 11.3953C23.1914 11.3953 22.8751 11.0791 22.8751 10.6977C22.8751 10.3163 23.1914 10 23.5728 10C27.5449 10 30.7821 13.2372 30.7821 17.2093C30.7821 17.5907 30.4658 17.907 30.0844 17.907Z" fill="white"/>
</svg>
