<svg width="50" height="50" viewBox="0 0 50 50" fill="none" xmlns="http://www.w3.org/2000/svg">
<g clip-path="url(#clip0_75_1464)">
<path d="M45.8334 26.2387C45.8334 14.7387 36.5 5.40541 25 5.40541C13.5 5.40541 4.16669 14.7387 4.16669 26.2387C4.16669 36.3221 11.3334 44.7179 20.8334 46.6554V32.4887H16.6667V26.2387H20.8334V21.0304C20.8334 17.0096 24.1042 13.7387 28.125 13.7387H33.3334V19.9887H29.1667C28.0209 19.9887 27.0834 20.9262 27.0834 22.0721V26.2387H33.3334V32.4887H27.0834V46.9679C37.6042 45.9262 45.8334 37.0512 45.8334 26.2387Z" fill="#2044FF"/>
<path fill-rule="evenodd" clip-rule="evenodd" d="M43.3585 50.6415C42.5032 49.7862 41.1165 49.7862 40.2612 50.6415L24 66.9026L7.73883 50.6415C6.88352 49.7862 5.49679 49.7862 4.64148 50.6415C3.78617 51.4968 3.78617 52.8835 4.64148 53.7388L20.9027 70L4.64163 86.261C3.78632 87.1163 3.78632 88.5031 4.64163 89.3584C5.49694 90.2137 6.88367 90.2137 7.73898 89.3584L24 73.0974L40.261 89.3584C41.1163 90.2137 42.5031 90.2137 43.3584 89.3584C44.2137 88.5031 44.2137 87.1163 43.3584 86.261L27.0974 70L43.3585 53.7388C44.2138 52.8835 44.2138 51.4968 43.3585 50.6415Z" fill="white"/>
</g>
<defs>
<clipPath id="clip0_75_1464">
<rect width="50" height="50" fill="white"/>
</clipPath>
</defs>
</svg>
