<svg width="91" height="84" viewBox="0 0 91 84" fill="none" xmlns="http://www.w3.org/2000/svg">
<path d="M67.5741 77.873C67.2394 78.0365 67.2675 78.0884 67.5881 77.9379C67.6922 77.8989 67.7794 77.8444 67.8553 77.7795C67.8553 77.725 67.8553 77.725 67.5741 77.873ZM68.249 77.5355C68.0887 77.6575 68.0887 77.6575 68.28 77.5771C68.3812 77.5226 68.4712 77.4706 68.4712 77.4551C68.4712 77.385 68.4262 77.4006 68.249 77.5355ZM68.6878 77.2915C68.5275 77.4135 68.5275 77.4135 68.7187 77.3331C68.8228 77.2786 68.91 77.2215 68.91 77.2085C68.91 77.1436 68.865 77.1566 68.6878 77.2915ZM69.1321 77.0501C68.9718 77.1721 68.9718 77.1721 69.1574 77.0891C69.2615 77.0372 69.3487 76.9827 69.3487 76.9671C69.3487 76.9022 69.3037 76.9152 69.1321 77.0501ZM69.7312 76.6842C69.4246 76.8736 69.3177 76.9956 69.599 76.8607C69.7874 76.7542 70.108 76.5206 70.0518 76.5206C69.9309 76.5622 69.8296 76.6323 69.7284 76.6842H69.7312ZM42.8361 0.0190781C42.6308 0.0320563 42.0149 0.0839693 41.4749 0.1255C28.684 1.19491 16.7172 7.54906 9.13213 17.3372C4.93882 22.7025 2.2164 28.9346 1.18987 35.4782C0.827073 37.7624 0.782074 38.4373 0.782074 41.5339C0.782074 44.6279 0.827073 45.2924 1.18987 47.5766C3.63948 63.179 15.6654 76.2766 31.9661 81.1305C34.8994 81.9949 37.9734 82.5919 41.4749 82.9578C42.8361 83.0928 48.7225 83.0928 50.0837 82.9578C56.136 82.3349 61.2461 80.9566 66.3028 78.5764C67.0791 78.213 67.2253 78.117 67.1213 78.0365C64.6463 75.0229 62.2164 72.0068 59.7837 68.9647L52.5923 60.0019L43.5842 47.6856C40.5805 43.5637 37.5656 39.4522 34.5029 35.3718C34.472 35.3718 34.4326 40.846 34.4157 47.522C34.3848 59.2155 34.3848 59.6905 34.2245 59.9604C34.0642 60.2849 33.7998 60.5548 33.4482 60.7054C33.1698 60.8273 32.9195 60.8533 31.5892 60.8533H30.0677L29.6712 60.6249C29.4237 60.4769 29.2184 60.2719 29.0862 60.0305L28.8949 59.6645L28.909 43.3872L28.9399 27.1099L29.2184 26.7854C29.3956 26.5855 29.6149 26.422 29.8624 26.3C30.2308 26.1365 30.3771 26.1105 31.8986 26.1105C33.6845 26.1105 33.9798 26.1754 34.4495 26.6504C38.0943 31.6652 41.728 36.693 45.3026 41.7363C51.1496 49.9178 59.1312 61.0817 63.0545 66.5585L70.1896 76.5232L70.5412 76.3078C73.9695 74.1975 77.0884 71.6849 79.7799 68.8194C85.4497 62.8286 89.1284 55.4595 90.3743 47.5947C90.7371 45.3106 90.7821 44.6331 90.7821 41.5391C90.7821 38.4425 90.7371 37.7806 90.3743 35.4964C87.9247 19.894 75.8988 6.79632 59.5981 1.93986C56.5494 1.04955 53.4136 0.442169 50.2383 0.130691C49.3862 0.0502259 43.5701 -0.0458131 42.8389 0.0242694L42.8361 0.0190781ZM61.2489 25.1372C61.6736 25.3241 61.9942 25.6771 62.1405 26.082C62.2164 26.3 62.2305 30.8139 62.2164 40.981L62.1855 55.5789L59.404 51.6336L56.6056 47.6856V37.0875C56.6056 30.2169 56.6366 26.3649 56.676 26.1754C56.8081 25.742 57.1288 25.3786 57.5562 25.1502C57.905 24.9866 58.04 24.9736 59.4321 24.9736C60.7343 24.9736 60.9564 24.9866 61.2489 25.1372Z" fill="#142A54"/>
</svg>
