<svg width="50" height="51" viewBox="0 0 50 51" fill="none" xmlns="http://www.w3.org/2000/svg">
<g clip-path="url(#clip0_75_1473)">
<path d="M1.16161 50.5C0.880848 50.5 0.607717 50.389 0.405156 50.1841C0.138128 49.9141 0.0351314 49.5219 0.135458 49.1553L3.38596 37.2855C1.36226 33.6261 0.295293 29.4864 0.296819 25.2841C0.302541 11.6179 11.4239 0.5 25.0889 0.5C31.7169 0.50267 37.9448 3.08446 42.6258 7.76891C47.306 12.4537 49.8825 18.6812 49.8806 25.3039C49.8745 38.9705 38.7531 50.0892 25.0889 50.0892C25.0889 50.0892 25.0786 50.0892 25.0782 50.0892C21.0869 50.0876 17.1299 49.1149 13.6067 47.2724L1.43131 50.4653C1.34204 50.4886 1.25125 50.5 1.16161 50.5Z" fill="#E5E5E5"/>
<path d="M1.16156 49.436L4.52765 37.1439C2.45131 33.5463 1.35916 29.4653 1.36069 25.2844C1.36603 12.205 12.0098 1.56393 25.0889 1.56393C31.4358 1.5666 37.3932 4.037 41.8732 8.52078C46.3528 13.0046 48.819 18.9646 48.8167 25.3035C48.811 38.3825 38.1657 49.0251 25.0889 49.0251C25.0881 49.0251 25.0893 49.0251 25.0889 49.0251H25.0786C21.1075 49.0236 17.2058 48.0276 13.7402 46.1374L1.16156 49.436ZM14.3227 41.8432L15.0433 42.2701C18.0706 44.0668 21.5416 45.017 25.0813 45.019H25.0889C35.9585 45.019 44.8056 36.1735 44.8102 25.302C44.8121 20.0335 42.7628 15.0794 39.0393 11.3528C35.3154 7.62624 30.3643 5.57279 25.0961 5.5705C14.2178 5.5705 5.37108 14.4149 5.36689 25.286C5.36536 29.0114 6.40754 32.6391 8.38203 35.7786L8.85124 36.5248L6.85844 43.8002L14.3227 41.8432Z" fill="white"/>
<path d="M1.98669 48.6079L5.23643 36.7408C3.23143 33.2679 2.17743 29.3277 2.17857 25.2921C2.18353 12.6655 12.4592 2.39285 25.0847 2.39285C31.2126 2.39552 36.964 4.78047 41.288 9.10901C45.6131 13.4375 47.9934 19.1913 47.9911 25.31C47.9858 37.9371 37.7098 48.2108 25.0858 48.2108C25.0847 48.2108 25.0862 48.2108 25.0858 48.2108H25.0755C21.2421 48.2093 17.4751 47.2472 14.1296 45.4238L1.98669 48.6079Z" fill="#64B161"/>
<path d="M1.16156 49.436L4.52765 37.1439C2.45131 33.5463 1.35916 29.4653 1.36069 25.2844C1.36603 12.205 12.0098 1.56393 25.0889 1.56393C31.4358 1.5666 37.3932 4.037 41.8732 8.52078C46.3528 13.0046 48.819 18.9646 48.8167 25.3035C48.811 38.3825 38.1657 49.0251 25.0889 49.0251C25.0881 49.0251 25.0893 49.0251 25.0889 49.0251H25.0786C21.1075 49.0236 17.2058 48.0276 13.7402 46.1374L1.16156 49.436ZM14.3227 41.8432L15.0433 42.2701C18.0706 44.0668 21.5416 45.017 25.0813 45.019H25.0889C35.9585 45.019 44.8056 36.1735 44.8102 25.302C44.8121 20.0335 42.7628 15.0794 39.0393 11.3528C35.3154 7.62624 30.3643 5.57279 25.0961 5.5705C14.2178 5.5705 5.37108 14.4149 5.36689 25.286C5.36536 29.0114 6.40754 32.6391 8.38203 35.7786L8.85124 36.5248L6.85844 43.8002L14.3227 41.8432Z" fill="white"/>
<path fill-rule="evenodd" clip-rule="evenodd" d="M19.1585 15.3678C18.7145 14.3806 18.2468 14.3607 17.8241 14.3436C17.4785 14.3287 17.083 14.3294 16.6881 14.3294C16.2929 14.3294 15.6505 14.4782 15.1073 15.0714C14.5637 15.6646 13.0318 17.0989 13.0318 20.016C13.0318 22.9335 15.1565 25.7522 15.4529 26.1482C15.7493 26.5438 19.5545 32.7213 25.5806 35.0979C30.5889 37.0732 31.6078 36.6802 32.6949 36.5814C33.7821 36.4826 36.2026 35.1471 36.6966 33.7628C37.1909 32.3784 37.1909 31.192 37.0425 30.9437C36.8942 30.6969 36.499 30.5485 35.9062 30.2521C35.3133 29.9557 32.3985 28.521 31.855 28.3233C31.3114 28.1254 30.9162 28.0269 30.521 28.6205C30.1254 29.2133 28.9901 30.5485 28.6441 30.9437C28.2981 31.34 27.9521 31.3896 27.3593 31.0928C26.7665 30.7957 24.8569 30.1701 22.5917 28.1502C20.8294 26.5789 19.6392 24.638 19.2932 24.0444C18.9476 23.4516 19.2875 23.1586 19.5537 22.8347C20.0332 22.2515 20.8378 21.2028 21.0354 20.8076C21.233 20.4116 21.1342 20.0656 20.9861 19.7688C20.8378 19.4724 19.6853 16.5405 19.1585 15.3678Z" fill="white"/>
</g>
<defs>
<clipPath id="clip0_75_1473">
<rect width="50" height="50" fill="white" transform="translate(0 0.5)"/>
</clipPath>
</defs>
</svg>
